<svg xmlns="http://www.w3.org/2000/svg" width="50" height="41.667" viewBox="0 0 50 41.667">
  <g id="_003-briefcase" data-name="003-briefcase" transform="translate(0 -42.666)">
    <g id="Group_5" data-name="Group 5" transform="translate(0 42.666)">
      <g id="Group_4" data-name="Group 4">
        <path id="Path_6" data-name="Path 6" d="M45.833,48.916H35.417V46.833a4.171,4.171,0,0,0-4.167-4.167H18.75a4.171,4.171,0,0,0-4.167,4.167v2.083H4.167A4.171,4.171,0,0,0,0,53.083v6.25A4.171,4.171,0,0,0,4.167,63.5H20.833V62.458a1.041,1.041,0,0,1,1.042-1.042h6.25a1.041,1.041,0,0,1,1.042,1.042V63.5H45.833A4.171,4.171,0,0,0,50,59.333v-6.25A4.171,4.171,0,0,0,45.833,48.916Zm-14.583,0H18.75V46.833h12.5Z" transform="translate(0 -42.666)" fill="#707070"/>
        <path id="Path_7" data-name="Path 7" d="M49.422,266.493a1.045,1.045,0,0,0-1.093.1,4.114,4.114,0,0,1-2.5.857H29.167v3.124a1.041,1.041,0,0,1-1.042,1.043h-6.25a1.041,1.041,0,0,1-1.042-1.043v-3.124H4.167a4.114,4.114,0,0,1-2.5-.857,1.04,1.04,0,0,0-1.67.83v14.61A4.171,4.171,0,0,0,4.167,286.2H45.833A4.171,4.171,0,0,0,50,282.037v-14.61A1.044,1.044,0,0,0,49.422,266.493Z" transform="translate(0 -244.537)" fill="#707070"/>
      </g>
    </g>
  </g>
</svg>
