<svg xmlns="http://www.w3.org/2000/svg" width="50" height="50" viewBox="0 0 50 50">
  <g id="_001-justice-scale" data-name="001-justice-scale" transform="translate(0 0)">
    <path id="Path_1" data-name="Path 1" d="M48.535,29.394H46.6l-4.98-12.206a4.384,4.384,0,0,0,2.426-3.907,1.465,1.465,0,1,0-2.93,0,1.466,1.466,0,0,1-1.465,1.465c-.763,0-1.137-.28-1.914-.914a7.624,7.624,0,0,0-5.41-2.016,6.519,6.519,0,0,0-4.237,1.273,4.392,4.392,0,0,0-1.623-1v-.54a4.388,4.388,0,0,0,2.93-4.125c0-1.873-2.23-5.438-3.189-6.828a1.521,1.521,0,0,0-2.412,0c-.958,1.389-3.189,4.955-3.189,6.828a4.388,4.388,0,0,0,2.93,4.125v.54a4.392,4.392,0,0,0-1.623,1,6.519,6.519,0,0,0-4.237-1.273,7.624,7.624,0,0,0-5.41,2.016c-.777.634-1.152.914-1.914.914a1.466,1.466,0,0,1-1.465-1.465,1.465,1.465,0,1,0-2.93,0,4.384,4.384,0,0,0,2.426,3.907L3.4,29.394H1.465A1.464,1.464,0,0,0,0,30.859a7.333,7.333,0,0,0,7.324,7.324h5.957a7.333,7.333,0,0,0,7.324-7.324,1.464,1.464,0,0,0-1.465-1.465H17.2L12.344,17.248A7.72,7.72,0,0,0,14.118,16.1a4.771,4.771,0,0,1,3.558-1.356c2.675,0,2.911,1.236,2.93,1.5,0,.01.006.019.007.029a4.384,4.384,0,0,0,2.923,4.06V41.481a4.388,4.388,0,0,0-2.93,4.125,1.466,1.466,0,0,1-1.465,1.465h-2.93a1.465,1.465,0,1,0,0,2.93H33.789a1.465,1.465,0,1,0,0-2.93h-2.93a1.466,1.466,0,0,1-1.465-1.465,4.388,4.388,0,0,0-2.93-4.125V20.335a4.385,4.385,0,0,0,2.924-4.067c0-.006,0-.011,0-.016.017-.25.235-1.506,2.931-1.506A4.771,4.771,0,0,1,35.882,16.1a7.72,7.72,0,0,0,1.774,1.146L32.8,29.394H30.859a1.464,1.464,0,0,0-1.465,1.465,7.333,7.333,0,0,0,7.324,7.324h5.957A7.333,7.333,0,0,0,50,30.859,1.464,1.464,0,0,0,48.535,29.394Zm-41.977,0,3.793-9.239,3.7,9.239Zm29.395,0,3.7-9.239,3.793,9.239Z" transform="translate(0 0)" fill="#707070"/>
  </g>
</svg>
