<svg id="_002-tax" data-name="002-tax" xmlns="http://www.w3.org/2000/svg" width="49.998" height="49.999" viewBox="0 0 49.998 49.999">
  <path id="Path_2" data-name="Path 2" d="M41.451,21.323V1.471A1.471,1.471,0,0,0,39.981,0H1.471A1.471,1.471,0,0,0,0,1.471V40.906a2.391,2.391,0,0,0,2.351,2.388A2.4,2.4,0,0,0,4.69,40.906V26.382c0-.021,0-.041,0-.062a5.205,5.205,0,0,1,5.214-5ZM27.255,7.415a1.471,1.471,0,1,1,2.271-1.87l2.2,2.678,2.2-2.678a1.471,1.471,0,0,1,2.272,1.87l-2.571,3.123,2.571,3.124a1.471,1.471,0,0,1-2.272,1.869l-2.2-2.678-2.2,2.678a1.47,1.47,0,1,1-2.271-1.869l2.571-3.124Zm-12.463,2.4a4.81,4.81,0,1,1,9.62,0V14.6a1.471,1.471,0,0,1-2.941,0V13.456H17.733V14.6a1.471,1.471,0,1,1-2.941,0ZM8.431,16.067A1.47,1.47,0,0,1,6.961,14.6V7.95H5.092a1.471,1.471,0,0,1,0-2.941h6.679a1.471,1.471,0,0,1,0,2.941H9.9V14.6A1.47,1.47,0,0,1,8.431,16.067Z" fill="#707070"/>
  <path id="Path_3" data-name="Path 3" d="M74.874,247.5h-.01a2.271,2.271,0,0,0-2.273,2.152v14.489a5.275,5.275,0,0,1-.571,2.39h5.132V249.778A2.28,2.28,0,0,0,74.874,247.5Z" transform="translate(-64.959 -223.236)" fill="#707070"/>
  <path id="Path_4" data-name="Path 4" d="M184.618,82.959a1.869,1.869,0,1,0-3.738,0v.7h3.738Z" transform="translate(-163.147 -73.14)" fill="#707070"/>
  <path id="Path_5" data-name="Path 5" d="M182.132,247.5H149.02a5.194,5.194,0,0,1,.523,2.278v21.987a1.47,1.47,0,0,0,1.47,1.471h31.925a1.47,1.47,0,0,0,1.47-1.471V249.778A2.28,2.28,0,0,0,182.132,247.5Zm-26.49,7.538h11.4a1.47,1.47,0,1,1,0,2.941h-11.4a1.47,1.47,0,1,1,0-2.941Zm11.468,10.88c-.072,0,.623,0-11.468,0a1.471,1.471,0,1,1,0-2.942h11.4a1.471,1.471,0,0,1,.072,2.939Zm12.318,0h-5.589a1.471,1.471,0,0,1,0-2.942h5.589a1.471,1.471,0,0,1,0,2.942Zm0-7.942h-5.589a1.47,1.47,0,0,1,0-2.941h5.589a1.47,1.47,0,1,1,0,2.941Z" transform="translate(-134.411 -223.236)" fill="#707070"/>
</svg>
